<svg xmlns="http://www.w3.org/2000/svg" viewBox="0 0 500 500" fill="none">
  <!-- Fundo com círculos decorativos -->
  <circle cx="250" cy="250" r="150" fill="#F5F3FF" opacity="0.5"/>
  <circle cx="150" cy="350" r="80" fill="#EFF6FF" opacity="0.7"/>
  <circle cx="350" cy="150" r="60" fill="#F8FAFC" opacity="0.6"/>
  
  <!-- Documento com perguntas e respostas -->
  <g transform="translate(120, 120)">
    <!-- Documento base -->
    <rect x="0" y="0" width="250" height="300" rx="15" fill="white" stroke="#E2E8F0" stroke-width="2"/>
    
    <!-- Linhas de texto (perguntas e respostas) -->
    <rect x="25" y="30" width="150" height="10" rx="5" fill="#7C3AED"/>
    <rect x="25" y="50" width="200" height="6" rx="3" fill="#94A3B8"/>
    <rect x="25" y="65" width="180" height="6" rx="3" fill="#94A3B8"/>
    
    <rect x="25" y="100" width="130" height="10" rx="5" fill="#7C3AED"/>
    <rect x="25" y="120" width="200" height="6" rx="3" fill="#94A3B8"/>
    <rect x="25" y="135" width="180" height="6" rx="3" fill="#94A3B8"/>
    
    <rect x="25" y="170" width="160" height="10" rx="5" fill="#7C3AED"/>
    <rect x="25" y="190" width="200" height="6" rx="3" fill="#94A3B8"/>
    <rect x="25" y="205" width="180" height="6" rx="3" fill="#94A3B8"/>
    
    <rect x="25" y="240" width="140" height="10" rx="5" fill="#7C3AED"/>
    <rect x="25" y="260" width="200" height="6" rx="3" fill="#94A3B8"/>
    <rect x="25" y="275" width="180" height="6" rx="3" fill="#94A3B8"/>
    
    <!-- Ícones de + -->
    <g transform="translate(220, 35)">
      <circle cx="0" cy="0" r="12" fill="#EDE9FE"/>
      <path d="M-6,0 L6,0 M0,-6 L0,6" stroke="#7C3AED" stroke-width="2" stroke-linecap="round"/>
    </g>
    
    <g transform="translate(220, 105)">
      <circle cx="0" cy="0" r="12" fill="#EDE9FE"/>
      <path d="M-6,0 L6,0 M0,-6 L0,6" stroke="#7C3AED" stroke-width="2" stroke-linecap="round"/>
    </g>
    
    <g transform="translate(220, 175)">
      <circle cx="0" cy="0" r="12" fill="#7C3AED"/>
      <path d="M-6,0 L6,0 M0,-6 L0,6" stroke="white" stroke-width="2" stroke-linecap="round"/>
    </g>
    
    <g transform="translate(220, 245)">
      <circle cx="0" cy="0" r="12" fill="#EDE9FE"/>
      <path d="M-6,0 L6,0 M0,-6 L0,6" stroke="#7C3AED" stroke-width="2" stroke-linecap="round"/>
    </g>
  </g>
  
  <!-- Elemento de decoração - Lupa -->
  <g transform="translate(80, 180) rotate(-20)">
    <circle cx="0" cy="0" r="25" fill="white" stroke="#7C3AED" stroke-width="3"/>
    <line x1="20" y1="20" x2="40" y2="40" stroke="#7C3AED" stroke-width="4" stroke-linecap="round"/>
  </g>
  
  <!-- Elemento de decoração - Balões de diálogo -->
  <g transform="translate(350, 80)">
    <rect x="0" y="0" width="60" height="40" rx="10" fill="#7C3AED"/>
    <polygon points="10,40 20,55 30,40" fill="#7C3AED"/>
    <circle cx="20" cy="20" r="3" fill="white"/>
    <circle cx="30" cy="20" r="3" fill="white"/>
    <circle cx="40" cy="20" r="3" fill="white"/>
  </g>
  
  <g transform="translate(380, 130)">
    <rect x="0" y="0" width="45" height="30" rx="8" fill="#3B82F6"/>
    <polygon points="5,30 15,40 25,30" fill="#3B82F6"/>
    <circle cx="15" cy="15" r="2" fill="white"/>
    <circle cx="22.5" cy="15" r="2" fill="white"/>
    <circle cx="30" cy="15" r="2" fill="white"/>
  </g>
</svg> 